PathFileType	4	(X/Y/Z)	C:/Users/beibeiliu/ov580/test_trc\sequence.42_training_dense_right.trc
DataRate	CameraRate	NumFrames	NumMarkers	Units	OrigDataRate	OrigDataStartFrame	OrigNumFrames
120	120	25	19	mm	120	64	95
Frame#	Time	ThumbCMC			ThumbMCP			ThumbIP			ThumbTip			IndexMCP			IndexPIP			IndexTip			MiddleMCP			MiddlePIP			MiddleTip			RingMCP			RingPIP			RingTip			PinkyMCP			PinkyPIP			PinkyTip			BackHand1			BackHand2			BackHand3	
		X0	Y0	Z0	X1	Y1	Z1	X2	Y2	Z2	X3	Y3	Z3	X4	Y4	Z4	X5	Y5	Z5	X6	Y6	Z6	X7	Y7	Z7	X8	Y8	Z8	X9	Y9	Z9	X10	Y10	Z10	X11	Y11	Z11	X12	Y12	Z12	X13	Y13	Z13	X14	Y14	Z14	X15	Y15	Z15	X16	Y16	Z16	X17	Y17	Z17	X18	Y18	Z18	
63	0.525	118.892	3.14381	135.278	122.672	-23.0373	114.236	136.518	-35.792	91.6537	164.22	-39.5571	82.7223	152.184	13.6061	73.8318	152.151	4.96725	47.0779	165.029	-6.73857	26.8468	172.865	11.0944	73.2239	175.383	1.89583	51.1677	184.988	-11.9531	20.9813	184.614	-13.6741	90.0902	172.73	-42.8133	93.8205	155.854	-39.6841	121.921	192.988	-21.4382	107.52	173.556	-40.2513	114.72	155.471	-27.8139	140.073	181.242	24.8393	129.361	170.846	29.267	163.313	144.338	32.2686	133.686	
64	0.533333	111.519	2.11129	144.559	111.504	-29.8528	120.661	122.184	-46.5892	104.004	150.298	-51.1014	93.1855	135.264	-1.2675	74.3347	137.404	-19.4874	49.7715	146.743	-34.3207	32.6397	156.288	-6.5907	72.2133	162.217	-23.6276	52.9896	162.662	-41.3946	29.8829	171.348	-27.5003	92.0596	158.236	-56.7795	105.285	143.784	-46.0715	129.169	179.772	-31.9801	109.832	161.265	-49.5839	125.202	148.383	-31.2195	148.09	174.386	16.2041	125.434	166.921	28.8751	156.88	139.19	28.028	132.883	
65	0.541667	106.166	3.99037	146.931	103.021	-27.8171	132.675	108.357	-48.2736	114.199	130.438	-59.4657	104.388	125.669	-11.8016	79.1266	126.464	-34.1212	59.922	127.518	-49.8782	44.5986	148.203	-22.9495	74.2981	144.6	-40.5859	60.1793	139.297	-61.7523	42.1159	154.058	-41.2719	95.7067	138.798	-62.0735	110.893	128.493	-43.6169	137.344	164.31	-45.1553	115.083	145.496	-54.3238	136.694	137.868	-30.7509	150.863	169.042	7.75712	126.932	164.239	23.3205	155.66	139.937	24.9277	129.367	
66	0.55	106.676	12.0265	150.829	94.4377	-19.079	141.2	94.1357	-43.5153	120.72	113.136	-58.3527	112.616	118.939	-14.6472	82.2621	109.941	-29.4048	66.6286	105.159	-52.7527	49.4285	135.492	-24.951	81.8188	126.1	-44.8733	65.3291	114.832	-69.5342	48.8964	138.964	-49.2957	100.941	118.486	-61.0081	122.289	117.07	-38.3714	143.348	149.077	-51.8935	120.337	129.415	-55.8385	139.745	131.346	-26.5851	158.704	169.4	-4.23328	125.784	170.094	12.8424	154.86	143.3	23.3035	134.519	
67	0.558333	112.914	25.0238	154.045	90.2616	-2.01457	144.803	85.0474	-25.5914	127.31	91.5487	-46.161	118.047	114.94	-4.7694	85.3664	98.5787	-17.5561	69.2123	88.0839	-37.9551	55.6768	121.458	-20.2298	81.7476	109.248	-36.438	69.1814	90.8121	-53.9708	55.282	124.939	-42.1982	105.628	99.0079	-48.2315	123.032	107.266	-26.2784	147.307	131.02	-51.9419	124.43	108.494	-42.5328	145.167	121.138	-20.9974	161.993	165.082	-10.3019	130.393	176.247	2.99915	158.673	149.905	23.3331	133.409	
68	0.566667	122.36	32.7174	156.142	93.016	16.0315	148.663	73.0507	-2.82203	131.076	76.3758	-26.904	119.629	115.403	6.83958	88.6525	97.7474	-2.88928	72.2039	78.3219	-12.2094	57.1593	116.61	-14.5207	82.1905	97.9578	-22.3571	70.6844	74.0697	-32.2001	55.6036	109.11	-33.8552	106.729	84.765	-28.3684	124.403	100.811	-8.64633	149.818	112.573	-41.6545	124.534	96.0629	-31.3741	142.811	115.303	-8.95198	161.454	159.416	-14.2139	130.733	172.611	-7.55883	156.201	157.878	16.1226	135.339	
69	0.575	131.405	34.0095	153.086	98.6788	30.704	147.339	76.2752	16.1497	128.173	71.0708	-3.66235	120.032	115.916	18.6204	84.3482	97.9449	14.7864	69.9173	79.5642	8.65927	55.0666	115.016	-2.12398	83.1084	94.1182	-3.55917	68.4415	68.5969	-11.7127	53.342	101.72	-19.8612	105.97	78.2762	-8.84623	122.003	96.4905	0.652772	151.472	100.269	-26.8491	122.778	86.8947	-18.0402	145.343	109.453	-3.31232	162.585	152.19	-20.5175	128.692	169.191	-10.467	158.319	161.254	16.7061	139.358	
70	0.583333	141.265	35.8877	155.013	107.515	40.3917	142.734	83.8198	35.8518	123.81	74.1448	14.453	111.909	123.998	21.1132	82.1287	108.315	25.6072	66.1029	88.5545	25.5768	46.7572	119.017	1.32283	81.8833	102.298	9.44033	65.8791	78.5301	7.53727	48.1124	101.171	-6.0422	102.446	78.6106	8.27786	117.159	96.607	16.9496	145.729	95.7532	-15.2815	118.381	86.3751	0.24917	142.196	107.92	8.05355	158.1	145.729	-22.117	128.227	161.353	-19.1397	155.618	165.743	8.30259	136.688	
71	0.591667	153.236	31.2155	152.155	124.04	46.0585	137.583	103.051	36.9461	115.998	88.0155	20.4664	101.181	144.749	18.2999	81.0839	127.627	21.7593	60.8601	116.574	26.1429	42.8362	133.502	3.74043	76.1257	120.529	9.32152	59.6445	100.492	16.4458	35.0241	109.565	-2.80654	96.143	88.9902	12.4692	110.635	108.162	19.6352	141.373	102.665	-14.2475	113.961	92.7959	7.08089	130.117	112.578	9.09324	152.591	150.571	-29.3942	130.491	162.441	-27.1937	162.336	171.853	-0.520224	143.129	
72	0.6	170.63	17.6927	153.339	145.786	33.9805	127.651	128.137	29.451	105.221	112.997	13.9134	92.019	169.857	-2.66128	82.659	158.824	3.76896	55.4553	148.033	5.95321	34.319	156.3	-14.6859	75.5351	145.334	-9.49989	53.1203	136.335	-0.931739	29.6661	131.236	-14.0467	90.4731	114.126	11.8712	99.1267	122.876	12.3997	132.172	119.727	-20.6328	106.467	111.311	5.2891	121.728	127.175	4.00716	149.59	158.216	-42.0073	132.595	163.056	-41.7983	160.704	184.092	-16.5931	141.392	
73	0.608333	186.985	4.01958	150.128	168.735	24.3953	124.212	153.694	17.8906	100.096	140.637	2.37285	85.0058	196.923	-22.777	85.1417	194.568	-16.3214	60.0534	187.454	-18.0264	38.1004	183.278	-34.9062	79.4087	177.199	-30.765	57.445	172.758	-25.7852	28.8914	156.159	-29.0567	88.7878	136.872	-1.35848	90.9126	144.128	3.35644	124.008	138.072	-32.211	102.205	128.343	-4.94082	112.45	143.104	-1.8793	143.034	170.403	-52.1415	135.192	170.611	-49.8379	168.794	196.472	-31.98	151.853	
74	0.616667	198.118	-1.54869	154.174	183.778	11.0523	121.907	174.422	7.08773	97.6327	162.576	-12.2152	83.1968	220.313	-34.3625	94.032	221.337	-32.462	66.8559	215.702	-36.5871	45.2929	208.109	-47.927	86.9592	205.628	-47.9732	61.0219	205.578	-47.4741	35.8394	179.268	-42.9991	90.7151	161.76	-12.8652	88.8205	162.622	-5.53194	117.607	159.958	-43.6729	100.426	150.781	-13.3638	105.762	160.764	-8.11849	135.118	183.174	-61.8799	140.423	179.239	-53.9541	174.677	209.298	-40.0336	156.683	
75	0.625	203.85	5.36632	155.17	190.212	15.1133	122.447	185.168	7.35499	95.5931	180.513	-17.936	77.3509	239.873	-26.4552	100.591	242.773	-25.7849	76.5284	246.387	-29.7844	54.138	232.715	-41.6252	99.3517	236.947	-42.7813	70.0237	239.962	-45.4518	40.7294	201.157	-42.2864	90.3666	185.289	-20.2296	83.8925	177.865	-9.93951	116.467	182.781	-48.5514	102.146	167.183	-22.9121	99.0389	169.49	-10.0957	131.539	201.851	-58.2978	146.867	191.003	-48.8638	177.56	222.713	-30.0474	164.983	
76	0.633333	197.745	18.6112	155.222	187.617	18.8857	115.942	186.821	7.95788	92.2935	190.586	-14.1598	75.8992	247.399	-4.1189	108.866	254.668	0.89326	83.5021	261.273	-8.60966	57.3242	248.628	-19.2201	103.355	255.178	-22.0418	77.3542	262.393	-21.593	52.2319	219.987	-29.4869	97.4952	192.815	-14.641	86.4097	183.254	-7.15628	116.016	202.905	-40.313	104.812	180.207	-22.4631	99.0034	176.301	-6.70273	129.706	217.514	-39.0572	154.871	205.58	-38.8902	178.847	223.02	-8.74267	171.725	
77	0.641667	185.028	31.4019	149.055	175.856	23.2922	114.835	182.366	13.6097	88.5518	195.272	-7.83648	75.0295	244.298	30.9709	103.061	249.66	30.3669	80.4269	261.188	23.7274	59.4508	249.782	10.4519	101.534	257.285	13.3486	78.7095	268.392	8.82609	52.198	225.367	-12.6807	91.4758	199.26	-5.53849	83.9028	183.136	0.295918	111.688	212.892	-29.1553	103.336	184.116	-18.7907	101.162	177.89	-6.68294	132.006	227.402	-15.4512	151.173	211.925	-18.5807	176.411	218.853	13.5122	165.779	
78	0.65	169.057	37.8671	143.302	161.875	27.5622	108.082	177.313	16.3983	78.5729	197.579	-1.21396	75.2265	226.223	50.3511	100.088	234.824	56.4702	75.1601	249.079	52.1237	54.2952	238.586	35.9754	99.3561	249.927	35.6192	73.5774	259.649	38.2934	47.7169	223.727	5.2272	89.5475	194.557	-2.86557	80.888	180.605	2.65631	110.304	215.515	-12.2208	98.429	188.084	-15.2472	98.5296	176.319	-1.70239	126.177	227.458	9.43834	148.899	210.731	6.27469	176.343	207.911	34.7058	158.498	
79	0.658333	156.511	37.6833	134.301	152.389	25.2626	100.71	165.365	15.1497	80.4183	190.686	4.39733	72.093	207.91	63.3326	86.0275	218.801	63.1872	63.2855	227.398	66.1461	42.4849	222.857	50.6342	89.1244	232.852	50.4527	64.6766	243.898	52.6469	33.6679	216.596	18.0327	87.293	190.727	0.452594	76.6197	176.13	3.07143	108.086	215.524	-3.63122	95.4977	187.645	-8.49172	95.8957	174.247	-1.46299	127.212	219.013	26.4852	143.753	205.1	23.069	168.423	191.134	46.8024	151.033	
80	0.666667	143.02	32.9805	129.401	143.106	15.5484	95.4058	157.602	6.15862	74.4981	181.45	-1.69818	63.8757	190.015	56.8543	73.6849	194.541	56.9649	49.7094	205.541	56.0816	28.3122	206.234	48.7101	75.4121	215.604	46.634	51.4247	221.11	47.0099	23.8082	207.452	18.0204	80.7719	187.946	-5.32334	73.9252	169.433	-4.3916	103.513	209.46	2.31806	93.7605	184.517	-15.3439	98.8068	172.283	-2.03392	127.029	205.966	37.7494	134.683	194.628	33.2094	161.427	174.963	51.0309	140.367	
81	0.675	134.027	23.3824	125.846	136.308	1.45423	98.0247	150.805	-7.8552	75.528	176.697	-11.0109	70.692	170.992	44.4324	63.7538	177.082	38.7051	40.3465	187.859	34.9252	17.036	194.521	38.9717	65.3167	200.957	31.957	40.4789	205.058	28.2247	14.6919	200.256	9.29934	76.8211	181.898	-17.0315	76.0475	167.902	-16.0958	107.696	204.26	-2.91489	93.3575	184.529	-23.0697	101.924	166.928	-11.1133	125.892	195.116	38.7326	129.874	187.631	38.2158	158.337	166.216	48.4338	132.728	
82	0.683333	124.062	10.8229	124.229	131.898	-14.4354	102.273	149.648	-23.9268	81.4678	173.438	-26.2529	73.1352	160.715	23.1091	59.5587	164.078	15.0309	39.0826	174.098	6.45943	19.8414	178.097	23.1226	62.6764	181.581	14.3277	41.1508	192.241	1.50687	11.0944	190.833	-2.35885	76.1093	177.484	-29.7929	81.8266	163.75	-27.8576	108.897	199.406	-6.71934	95.5246	183.19	-31.6272	105.975	163.37	-21.2765	127.08	186.811	35.3925	119.999	175.775	40.8181	148.503	152.457	41.2897	123.556	
83	0.691667	119.742	2.75388	129.457	126	-28.0292	107.74	140.704	-39.4772	89.1449	165.883	-41.2158	77.4276	147.808	8.38655	61.5415	149.585	-5.62776	37.3008	156.952	-17.8564	17.1484	167.97	9.06846	62.5066	171.574	-4.88809	41.2272	177.277	-20.6575	16.5384	179.759	-10.4941	79.3351	175.124	-40.202	85.6477	153.893	-36.1963	114.453	190.155	-18.3236	95.8881	174.211	-38.5355	109.214	157.032	-28.57	130.172	178.014	30.3998	118.289	168.49	37.0549	149.727	142.713	35.9832	121.652	
84	0.7	109.547	-4.60204	133.614	116.864	-34.4821	116.147	130.441	-51.6671	95.2209	152.436	-52.6731	86.4969	127.539	-7.24674	61.1972	134.6	-24.2131	42.6395	140.435	-38.9754	23.4255	149.923	-6.17661	64.2125	154.919	-23.639	39.9996	162.24	-41.7861	19.2003	165.651	-25.4708	78.6753	164.637	-53.1184	93.5643	144.574	-44.2985	119.193	181.059	-22.9988	98.2006	169.258	-48.3345	114.033	148.742	-34.1976	132.753	161.581	21.722	112.091	158.1	32.3554	142.464	132.685	26.2682	120.203	
85	0.708333	101.105	-3.77139	136.742	101.189	-36.1725	123.78	115.111	-52.7534	104.618	133.576	-62.0191	91.6224	115.789	-12.9027	68.4054	116.831	-30.8559	48.2887	121.258	-49.6997	29.4381	134.651	-16.6921	63.0033	139.097	-32.9765	47.2711	139.416	-56.8719	24.2894	155.103	-35.7078	83.3678	144.3	-59.0311	96.1183	134.502	-45.7616	127.996	164.956	-36.6047	100.249	152.535	-54.0323	118.54	136.237	-31.1427	136.852	154.388	15.7169	115.315	153.115	27.641	145.473	126.359	25.3936	125.432	
86	0.716667	95.3716	6.81555	140.934	86.2838	-26.0538	131.896	93.1368	-48.6282	109.716	110.671	-61.0413	98.5974	106.401	-9.28008	69.8725	103.042	-26.1936	55.817	103.683	-49.7384	35.4026	126.066	-15.8199	68.3754	121.513	-36.0968	49.7862	113.325	-60.2797	31.8197	137.768	-40.5928	86.7028	120.618	-57.5876	104.474	115.018	-36.5526	130.158	148.501	-40.9365	105.193	129.452	-51.7909	124.671	123.753	-27.4806	142.423	153.268	9.22352	115.464	157.297	26.0779	143.575	127.172	28.3773	123.203	
87	0.725	98.8498	25.5212	146.775	79.0095	-4.4612	133.111	74.5396	-28.3432	115.589	91.0129	-46.6267	102.494	101.517	3.64442	73.9064	90.4891	-10.7831	59.6248	80.3521	-27.0227	42.1174	112.974	-8.90018	69.812	99.9635	-24.0648	55.2797	88.7091	-45.8395	39.4754	116.718	-33.0826	90.5149	98.4856	-45.5404	111.943	102.169	-22.8259	134.961	128.685	-41.1664	110.111	109.371	-40.4898	131.062	117.642	-13.3407	148.382	154.403	6.90326	117.821	159.439	18.9661	143.895	134.198	33.4765	128.554	
